<?xml version="1.0" encoding="UTF-8"?>
<svg id="Layer_1" data-name="Layer 1" xmlns="http://www.w3.org/2000/svg" version="1.1" viewBox="0 0 237 93.5">
  <defs>
    <style>
      .cls-1 {
        fill: #14375a;
        stroke-width: 0px;
      }

      .cls-2 {
        fill: none;
        stroke: #14375a;
        stroke-width: .5px;
      }
    </style>
  </defs>
  <g>
    <path class="cls-1" d="M52.1,68.3v9.1h-1.6v-9.1h1.6Z"/>
    <path class="cls-1" d="M60.8,73.2v4.2h-1.5v-4.1c0-1.1-.6-1.8-1.7-1.8s-1.8.7-1.8,1.8v4.1h-1.5v-7h1.3v.9c.5-.6,1.3-1.1,2.3-1.1,1.8,0,2.9,1.2,2.9,3Z"/>
    <path class="cls-1" d="M69.2,73.2v4.2h-1.5v-4.1c0-1.1-.6-1.8-1.7-1.8s-1.8.7-1.8,1.8v4.1h-1.5v-7h1.3v.9c.5-.6,1.3-1.1,2.3-1.1,1.8,0,2.9,1.2,2.9,3Z"/>
    <path class="cls-1" d="M70.6,73.9c0-2.1,1.6-3.7,3.8-3.7s3.8,1.6,3.8,3.7-1.6,3.7-3.8,3.7-3.8-1.6-3.8-3.7ZM76.7,73.9c0-1.3-.9-2.3-2.3-2.3s-2.3,1-2.3,2.3.9,2.3,2.3,2.3,2.3-1,2.3-2.3Z"/>
    <path class="cls-1" d="M85.9,70.5l-3.2,6.9h-1l-3.2-6.9h0c0-.1,1.5-.1,1.5-.1l2.1,5.1,2.2-5.1h1.4Z"/>
    <path class="cls-1" d="M92.6,73.2v4.3h-1.3v-.8c-.6.6-1.4,1-2.3,1-1.6,0-2.7-.9-2.7-2.3s1.2-2.4,3-2.4,1.4.2,2,.4v-.5c0-.9-.8-1.5-1.8-1.5s-1.5.3-2,.7h-.1l-.6-.9h0c.7-.7,1.8-1.1,2.8-1.1,1.8,0,3.1.9,3.1,2.9ZM91.1,74.9h0v-.4c-.4-.2-1.1-.5-1.8-.5s-1.7.5-1.7,1.3.6,1.2,1.5,1.2,1.9-.6,1.9-1.5Z"/>
    <path class="cls-1" d="M98.7,76.9h0c-.4.4-.9.6-1.5.6-1.3,0-2.3-.8-2.3-2.4v-3.6h-1.2v-1.2h1.2v-2.1l1.4-.2h.1v2.3h2.1v1.2h-2.1v3.5c0,.8.4,1.2,1,1.2s.6-.1.8-.3h.1c0,0,.4,1,.4,1Z"/>
    <path class="cls-1" d="M99.6,68.2c0-.6.5-1.1,1.1-1.1s1.1.5,1.1,1.1-.5,1.1-1.1,1.1-1.1-.5-1.1-1.1ZM99.9,70.4h1.5v7h-1.5v-7Z"/>
    <path class="cls-1" d="M102.9,73.9c0-2.1,1.6-3.7,3.8-3.7s3.8,1.6,3.8,3.7-1.6,3.7-3.8,3.7-3.8-1.6-3.8-3.7ZM109,73.9c0-1.3-.9-2.3-2.3-2.3s-2.3,1-2.3,2.3.9,2.3,2.3,2.3,2.3-1,2.3-2.3Z"/>
    <path class="cls-1" d="M118.6,73.2v4.2h-1.5v-4.1c0-1.1-.6-1.8-1.7-1.8s-1.8.7-1.8,1.8v4.1h-1.5v-7h1.3v.9c.5-.6,1.3-1.1,2.3-1.1,1.8,0,2.9,1.2,2.9,3Z"/>
    <path class="cls-1" d="M131.7,68.3v9.1h-1.6v-3.9h-4.6v3.9h-1.6v-9.1h1.6v3.9h4.6v-3.9h1.6Z"/>
    <path class="cls-1" d="M140,70.4v7h-1.3v-.8c-.5.6-1.2,1-2.2,1-1.7,0-2.8-1.2-2.8-3v-4.2h1.5v4.2c0,1,.6,1.7,1.6,1.7s1.7-.7,1.7-1.8v-4.1h1.5Z"/>
    <path class="cls-1" d="M149.4,73.9c0,2-1.5,3.7-3.5,3.7s-1.8-.4-2.4-1.1v.9h-1.4v-9.4l1.4-.2h.1v3.2c.6-.5,1.4-.8,2.3-.8,2.1,0,3.5,1.6,3.5,3.7ZM147.9,73.9c0-1.3-.9-2.3-2.2-2.3s-2.2.8-2.2,2.3,1,2.3,2.2,2.3,2.2-1.1,2.2-2.3Z"/>
  </g>
  <g>
    <g>
      <path class="cls-1" d="M51.7,38.4v7.6c0,2.2,1.4,3.6,3.5,3.6s3.5-1.4,3.5-3.6v-7.6h2.2v7.6c0,3.4-2.3,5.6-5.7,5.6s-5.7-2.2-5.7-5.6v-7.6h2.2Z"/>
      <path class="cls-1" d="M72.7,45.4v6h-2.2v-5.8c0-1.5-.9-2.5-2.4-2.5s-2.5,1-2.5,2.5v5.8h-2.2v-10h1.9v1.3c.7-.9,1.8-1.5,3.3-1.5,2.5,0,4.1,1.7,4.1,4.2Z"/>
      <path class="cls-1" d="M74.9,38.2c0-.8.7-1.5,1.5-1.5s1.5.7,1.5,1.5-.7,1.5-1.5,1.5-1.5-.7-1.5-1.5ZM75.3,41.4h2.2v10h-2.2v-10Z"/>
      <path class="cls-1" d="M89.5,41.6l-4.5,9.8h-1.4l-4.5-9.8v-.2h2.2l3,7.3,3.1-7.3h2v.2Z"/>
      <path class="cls-1" d="M92.1,46.9c.2,1.9,1.6,3,3.3,3s2.4-.4,3.1-1.3h.2l1.1,1v.2c-1.1,1.3-2.9,1.9-4.5,1.9-2.9,0-5.4-2-5.4-5.2s2.2-5.3,5.2-5.3,2.7.5,3.6,1.4c.9.9,1.5,2.2,1.5,3.7s0,.5,0,.7h-8ZM92.2,45.4h5.9c0-.7-.4-1.3-.8-1.7-.5-.5-1.2-.8-2.1-.8-1.6,0-2.7,1-2.9,2.6Z"/>
      <path class="cls-1" d="M108.5,41.6l-.5,1.6h-.2c-.3-.1-.7-.2-1.1-.2-1.4,0-2.2,1.2-2.2,2.8v5.5h-2.2v-10h1.9v1.3c.6-1,1.5-1.6,2.7-1.6s1,0,1.5.3v.2Z"/>
      <path class="cls-1" d="M108.9,49.8v-.2l1.1-1.1h.2c.6.8,1.7,1.3,2.8,1.3s1.7-.5,1.7-1.2-1-1.3-2-1.7c-1.5-.6-3.1-1.2-3.1-3s1.4-2.9,3.6-2.9,2.9.7,3.6,1.7v.2l-1.1,1.1h-.2c-.6-.7-1.5-1.2-2.4-1.2s-1.5.4-1.5,1,.8,1,2,1.5c1.7.7,3.2,1.3,3.2,3.3s-1.5,2.9-3.8,2.9-3.2-.7-4.1-1.8Z"/>
      <path class="cls-1" d="M118.6,38.2c0-.8.7-1.5,1.5-1.5s1.5.7,1.5,1.5-.7,1.5-1.5,1.5-1.5-.7-1.5-1.5ZM119,41.4h2.2v10h-2.2v-10Z"/>
      <path class="cls-1" d="M130.3,50.7v.2c-.6.5-1.4.7-2.3.7-1.8,0-3.3-1.1-3.3-3.4v-5.1h-1.7v-1.7h1.7v-3l2-.2h.2v3.3h3v1.7h-3v5c0,1.2.6,1.7,1.4,1.7s.8-.2,1.1-.5h.2c0,0,.6,1.4.6,1.4Z"/>
      <path class="cls-1" d="M141,41.6l-4.6,10.6c-.8,1.9-1.8,2.5-3.1,2.5s-1.3-.2-1.6-.4v-.2c0,0,.4-1.4.4-1.4h.2c.2,0,.6.2,1,.2.5,0,.9-.2,1.3-1.1l.5-1.1-4.1-9.2v-.2h2.3l2.9,7.1,2.9-7.1h2v.2Z"/>
      <path class="cls-1" d="M146.3,38.2c0-.8.7-1.5,1.5-1.5s1.5.7,1.5,1.5-.7,1.5-1.5,1.5-1.5-.7-1.5-1.5ZM146.7,41.4h2.2v10h-2.2v-10Z"/>
      <path class="cls-1" d="M161.1,45.4v6h-2.2v-5.8c0-1.5-.9-2.5-2.4-2.5s-2.5,1-2.5,2.5v5.8h-2.2v-10h1.9v1.3c.7-.9,1.8-1.5,3.3-1.5,2.5,0,4.1,1.7,4.1,4.2Z"/>
      <path class="cls-1" d="M166.4,44.9c0-3.9,3-6.7,6.9-6.7s4.2,1,5.4,2.6v.2l-1.4,1.1h-.2c-.9-1.1-2.3-1.9-3.8-1.9-2.6,0-4.7,2-4.7,4.7s2,4.7,4.7,4.7,2.9-.7,3.8-1.9h.2l1.4,1.1v.2c-1.2,1.5-3.1,2.6-5.4,2.6-3.8,0-6.9-2.9-6.9-6.7Z"/>
      <path class="cls-1" d="M188.8,45.3v6.1h-1.9v-1.1c-.9.9-2,1.4-3.3,1.4-2.3,0-3.9-1.3-3.9-3.2s1.7-3.4,4.3-3.4,2,.3,2.8.6v-.7c0-1.3-1.1-2.1-2.6-2.1s-2.1.4-2.8,1h-.2l-.8-1.2v-.2c1-.9,2.6-1.3,4-1.3,2.6,0,4.4,1.3,4.4,4.1ZM186.8,47.8h0v-.6c-.6-.3-1.5-.7-2.6-.7s-2.4.7-2.4,1.8.9,1.7,2.2,1.7,2.7-.9,2.8-2.2Z"/>
      <path class="cls-1" d="M191.2,38.2c0-.8.7-1.5,1.5-1.5s1.5.7,1.5,1.5-.7,1.5-1.5,1.5-1.5-.7-1.5-1.5ZM191.6,41.4h2.2v10h-2.2v-10Z"/>
      <path class="cls-1" d="M202.9,41.6l-.5,1.6h-.2c-.3-.1-.7-.2-1.1-.2-1.4,0-2.2,1.2-2.2,2.8v5.5h-2.2v-10h1.9v1.3c.6-1,1.5-1.6,2.7-1.6s1,0,1.5.3v.2Z"/>
      <path class="cls-1" d="M203.1,46.4c0-3,2.3-5.2,5.4-5.2s5.4,2.3,5.4,5.2-2.3,5.2-5.4,5.2-5.4-2.3-5.4-5.2ZM211.8,46.4c0-1.9-1.3-3.3-3.2-3.3s-3.2,1.4-3.2,3.3,1.3,3.3,3.2,3.3,3.2-1.4,3.2-3.3Z"/>
    </g>
    <g>
      <path class="cls-1" d="M56,31.4h-2.2v-11.1h-4.2v-1.9h10.6v1.9h-4.2v11.1Z"/>
      <path class="cls-1" d="M71.1,25.4v6h-2.2v-5.8c0-1.5-.9-2.5-2.4-2.5s-2.5,1-2.5,2.5v5.8h-2.2v-13.4l2-.2h.2v4.6c.7-.8,1.7-1.2,3-1.2,2.5,0,4.1,1.7,4.1,4.2Z"/>
      <path class="cls-1" d="M75.2,27c.2,1.9,1.6,3,3.3,3s2.4-.4,3.1-1.3h.2l1.1,1v.2c-1.1,1.3-2.9,1.9-4.5,1.9-2.9,0-5.4-2-5.4-5.2s2.2-5.3,5.2-5.3,2.7.5,3.6,1.4c.9.9,1.5,2.2,1.5,3.7s0,.5,0,.7h-8ZM75.2,25.5h5.9c0-.7-.4-1.3-.8-1.7-.5-.5-1.2-.8-2.1-.8-1.6,0-2.7,1-2.9,2.6Z"/>
      <path class="cls-1" d="M101.6,31.2v.2h-2.3l-1.2-2.6h-6.3l-1.2,2.6h-2.1v-.2c0,0,5.9-12.8,5.9-12.8h1.2l6,12.8ZM97.4,27.1l-2.4-5.5-2.5,5.5h4.9Z"/>
      <path class="cls-1" d="M119.1,25.4v6h-2.2v-5.8c0-1.5-.8-2.5-2.3-2.5s-2.5,1-2.5,2.5v5.8h-2.2v-5.8c0-1.5-.8-2.5-2.3-2.5s-2.5,1-2.5,2.5v5.8h-2.2v-10h1.9v1.3c.7-.9,1.8-1.6,3.3-1.6s2.7.7,3.3,1.7c.7-1,2-1.7,3.5-1.7,2.5,0,4,1.7,4,4.2Z"/>
      <path class="cls-1" d="M123.2,27c.2,1.9,1.6,3,3.3,3s2.4-.4,3.1-1.3h.2l1.1,1v.2c-1.1,1.3-2.9,1.9-4.5,1.9-2.9,0-5.4-2-5.4-5.2s2.2-5.3,5.2-5.3,2.7.5,3.6,1.4c.9.9,1.5,2.2,1.5,3.7s0,.5,0,.7h-8ZM123.2,25.5h5.9c-.1-.7-.4-1.3-.8-1.7-.5-.5-1.2-.8-2.1-.8-1.6,0-2.7,1-2.9,2.6Z"/>
      <path class="cls-1" d="M139.5,21.7l-.5,1.6h-.2c-.3-.1-.7-.2-1.1-.2-1.4,0-2.2,1.2-2.2,2.8v5.5h-2.2v-10h1.9v1.3c.6-1,1.5-1.6,2.7-1.6s1,0,1.5.3v.2Z"/>
      <path class="cls-1" d="M140.9,18.2c0-.8.7-1.5,1.5-1.5s1.5.7,1.5,1.5-.7,1.5-1.5,1.5-1.5-.7-1.5-1.5ZM141.4,21.4h2.2v10h-2.2v-10Z"/>
      <path class="cls-1" d="M145.7,26.4c0-3,2.3-5.2,5.4-5.2s3.2.7,4.1,1.8v.2l-1.2,1.1h-.2c-.7-.7-1.6-1.1-2.6-1.1-1.9,0-3.2,1.4-3.2,3.4s1.3,3.3,3.3,3.3,1.9-.3,2.6-1.1h.2l1.2,1.1v.2c-.9,1.1-2.3,1.8-4.1,1.8-3.1,0-5.4-2.3-5.4-5.2Z"/>
      <path class="cls-1" d="M165.4,25.3v6.1h-1.9v-1.1c-.9.9-2,1.4-3.3,1.4-2.3,0-3.9-1.3-3.9-3.2s1.7-3.4,4.3-3.4,2,.3,2.8.6v-.7c0-1.3-1.1-2.1-2.6-2.1s-2.1.4-2.8,1h-.2l-.8-1.2v-.2c1-.9,2.6-1.3,4-1.3,2.6,0,4.4,1.3,4.4,4.1ZM163.4,27.9h0v-.6c-.6-.3-1.5-.7-2.6-.7s-2.4.7-2.4,1.8.9,1.7,2.2,1.7,2.7-.9,2.8-2.2Z"/>
      <path class="cls-1" d="M177.4,25.4v6h-2.2v-5.8c0-1.5-.9-2.5-2.4-2.5s-2.5,1-2.5,2.5v5.8h-2.2v-10h1.9v1.3c.7-.9,1.8-1.5,3.3-1.5,2.5,0,4.1,1.7,4.1,4.2Z"/>
    </g>
    <g>
      <path class="cls-1" d="M19.8,20.6v1.3l2.9,1v-1.1h10.1v6.4l2.4,3.3c0,0,.2.1.3.1.2,0,.3-.1.3-.3h0s0-12.9,0-12.9h0s0,0,0,0h-17.3s0,0,0,0h0c-.2,0-.3.1-.3.3s0,.2,0,.2h0s1.3,1.3,1.3,1.3h0c.1.1.2.3.2.4h0Z"/>
      <path class="cls-1" d="M22.7,36.6v-7.7c0-.3-.2-.5-.4-.6l-2.5-.8v7.7c0,.3.2.5.4.6l2.5.8Z"/>
      <path class="cls-1" d="M11.5,37.3l1.2.4,1.8-2.5-1-.3,3.1-9.6,6.1,2,3.9-1.3c0,0,.2-.1.2-.2,0-.2,0-.3-.2-.4h0s-12.3-4-12.3-4h0s0,0,0,0l-5.3,16.4h0s0,0,0,0c0,.2,0,.3.2.4s.2,0,.2,0h0s1.6-.8,1.6-.8h0c.1,0,.3,0,.5,0h0Z"/>
      <path class="cls-1" d="M27.6,39.4l-7.3-2.4c-.3,0-.5,0-.7.2l-1.6,2.1,7.3,2.4c.3,0,.5,0,.7-.2l1.6-2.1Z"/>
      <path class="cls-1" d="M24.7,50.4l.7-1-1.8-2.5-.6.9-8.2-5.9,3.8-5.2v-4.1c0,0,0-.2-.1-.3-.1-.1-.3,0-.4,0h0s-7.6,10.5-7.6,10.5h0s0,0,0,0l14,10.2h0s0,0,0,0c.1.1.3,0,.4,0s0-.2,0-.2h0s-.3-1.8-.3-1.8h0c0-.2,0-.3.1-.5h0Z"/>
      <path class="cls-1" d="M31.7,35.7l-4.5,6.2c-.2.2-.2.5,0,.7l1.6,2.1,4.5-6.2c.2-.2.2-.5,0-.7l-1.6-2.1Z"/>
      <path class="cls-1" d="M41.3,41.8l-.7-1-2.9,1,.6.9-8.2,5.9-3.8-5.2-3.9-1.3c0,0-.2,0-.3,0-.1.1-.2.3,0,.4h0s7.6,10.5,7.6,10.5h0s0,0,0,0l14-10.2h0s0,0,0,0c.1-.1.2-.3,0-.4s-.1-.1-.2-.1h0s-1.8-.3-1.8-.3h0c-.2,0-.3-.1-.4-.3h0Z"/>
      <path class="cls-1" d="M29.5,30.6l4.5,6.2c.2.2.5.3.7.2l2.5-.8-4.5-6.2c-.2-.2-.5-.3-.7-.2l-2.5.8Z"/>
      <path class="cls-1" d="M38.2,23.4l-1.2.4v3.1s1-.3,1-.3l3.1,9.6-6.1,2-2.4,3.3c0,0,0,.2,0,.3,0,.2.2.3.4.2h0s12.3-4,12.3-4h0s0,0,0,0l-5.3-16.4h0s0,0,0,0c0-.2-.2-.3-.4-.2s-.1,0-.2.2h0s-.8,1.6-.8,1.6h0c0,.1-.2.3-.4.3h0Z"/>
      <path class="cls-1" d="M23.9,31.2l7.3-2.4c.3,0,.4-.3.4-.6v-2.6s-7.3,2.4-7.3,2.4c-.3,0-.4.3-.4.6v2.6Z"/>
    </g>
  </g>
  <line class="cls-2" x1="48.8" y1="59.4" x2="213.2" y2="59.4"/>
</svg>